<svg width="125" height="47" viewBox="0 0 125 47" fill="none" xmlns="http://www.w3.org/2000/svg">
<path d="M31 44L104 44" stroke="black" stroke-width="2"/>
<g filter="url(#filter0_i_185_52)">
<path d="M4.8 37V9H14.8C16.1867 9 17.3867 9.21333 18.4 9.64C19.44 10.04 20.28 10.56 20.92 11.2C21.5867 11.84 22.08 12.5467 22.4 13.32C22.72 14.0933 22.88 14.8533 22.88 15.6C22.88 16.4533 22.6933 17.2667 22.32 18.04C21.9467 18.7867 21.44 19.4533 20.8 20.04C20.1867 20.6 19.4667 21.0667 18.64 21.44C17.8133 21.7867 16.9333 21.96 16 21.96V22.12C16.5867 22.1467 17.36 22.24 18.32 22.4C19.28 22.56 20.2133 22.88 21.12 23.36C22.0267 23.84 22.8 24.5333 23.44 25.44C24.1067 26.3467 24.44 27.56 24.44 29.08C24.44 30.04 24.2667 31 23.92 31.96C23.6 32.8933 23.0667 33.7333 22.32 34.48C21.5733 35.2267 20.5867 35.84 19.36 36.32C18.1333 36.7733 16.6267 37 14.84 37H4.8ZM8.44 35.24H14.24C15.0933 35.24 15.8933 35.12 16.64 34.88C17.4133 34.6133 18.08 34.2267 18.64 33.72C19.2 33.2133 19.64 32.6 19.96 31.88C20.3067 31.16 20.48 30.3333 20.48 29.4C20.48 28.5467 20.32 27.7333 20 26.96C19.7067 26.1867 19.24 25.5067 18.6 24.92C17.9867 24.3333 17.2 23.8667 16.24 23.52C15.28 23.1733 14.1467 23 12.84 23H8.44V35.24ZM8.44 21.24H13.24C14.04 21.24 14.7867 21.1067 15.48 20.84C16.2 20.5733 16.8267 20.2 17.36 19.72C17.92 19.24 18.3467 18.6667 18.64 18C18.96 17.3333 19.12 16.6133 19.12 15.84C19.12 15.2267 19.0133 14.6133 18.8 14C18.5867 13.3867 18.24 12.84 17.76 12.36C17.3067 11.88 16.7067 11.4933 15.96 11.2C15.24 10.9067 14.36 10.76 13.32 10.76H8.44V21.24ZM44.6053 27.88H29.4053C29.4053 29.5067 29.6453 30.84 30.1253 31.88C30.6053 32.92 31.2053 33.7333 31.9253 34.32C32.6453 34.9067 33.4186 35.32 34.2453 35.56C35.0986 35.7733 35.8986 35.88 36.6453 35.88C37.312 35.88 37.912 35.8133 38.4453 35.68C39.0053 35.52 39.5386 35.3067 40.0453 35.04C40.552 34.7733 41.0453 34.44 41.5253 34.04C42.032 33.64 42.5653 33.2 43.1253 32.72L44.4053 34C43.3386 35.12 42.0853 35.9867 40.6453 36.6C39.2053 37.1867 37.632 37.48 35.9253 37.48C34.1653 37.48 32.632 37.1867 31.3253 36.6C30.0453 35.9867 28.9786 35.1867 28.1253 34.2C27.2986 33.1867 26.672 32.0533 26.2453 30.8C25.8453 29.52 25.6453 28.2133 25.6453 26.88C25.6453 25.28 25.8853 23.8533 26.3653 22.6C26.8453 21.32 27.512 20.24 28.3653 19.36C29.2186 18.4533 30.2186 17.7733 31.3653 17.32C32.512 16.84 33.7653 16.6 35.1253 16.6C36.4053 16.6 37.6186 16.8133 38.7653 17.24C39.912 17.6667 40.912 18.3067 41.7653 19.16C42.6453 20.0133 43.3386 21.0933 43.8453 22.4C44.352 23.7067 44.6053 25.2533 44.6053 27.04V27.88ZM29.4053 26.28H41.1253C41.1253 23.6933 40.592 21.6667 39.5253 20.2C38.4853 18.7067 37.0186 17.96 35.1253 17.96C34.1386 17.96 33.2853 18.2 32.5653 18.68C31.8453 19.1333 31.2453 19.7467 30.7653 20.52C30.312 21.2933 29.9653 22.1867 29.7253 23.2C29.512 24.1867 29.4053 25.2133 29.4053 26.28ZM54.3741 16.56C56.3207 16.56 57.8274 16.84 58.8941 17.4C59.9607 17.9333 60.7341 18.64 61.2141 19.52C61.7207 20.4 62.0141 21.4133 62.0941 22.56C62.1741 23.7067 62.2141 24.88 62.2141 26.08V37H58.9741V35.04C58.2007 35.7867 57.2141 36.3867 56.0141 36.84C54.8141 37.2667 53.6141 37.48 52.4141 37.48C51.2674 37.48 50.2541 37.28 49.3741 36.88C48.4941 36.48 47.7607 35.96 47.1741 35.32C46.5874 34.68 46.1474 33.96 45.8541 33.16C45.5607 32.36 45.4141 31.5467 45.4141 30.72C45.4141 29.8667 45.5741 29.0133 45.8941 28.16C46.2141 27.3067 46.6941 26.5467 47.3341 25.88C47.9741 25.1867 48.7607 24.6267 49.6941 24.2C50.6274 23.7733 51.6941 23.56 52.8941 23.56C54.0941 23.56 55.2274 23.8 56.2941 24.28C57.3874 24.7333 58.2807 25.3867 58.9741 26.24V24.52C58.9741 22.3333 58.6407 20.7067 57.9741 19.64C57.3341 18.5733 56.1474 18.04 54.4141 18.04C53.6674 18.04 53.0141 18.1333 52.4541 18.32C51.8941 18.5067 51.3874 18.7733 50.9341 19.12C50.5074 19.44 50.1074 19.8533 49.7341 20.36C49.3607 20.84 48.9874 21.3867 48.6141 22L46.5341 19.92C46.9074 19.52 47.2941 19.12 47.6941 18.72C48.1207 18.32 48.6274 17.96 49.2141 17.64C49.8274 17.32 50.5474 17.0667 51.3741 16.88C52.2007 16.6667 53.2007 16.56 54.3741 16.56ZM58.9741 29.08C58.8407 28.76 58.6407 28.3867 58.3741 27.96C58.1341 27.5333 57.8141 27.12 57.4141 26.72C57.0141 26.32 56.5341 25.9867 55.9741 25.72C55.4141 25.4267 54.7474 25.28 53.9741 25.28C53.2007 25.28 52.4941 25.44 51.8541 25.76C51.2141 26.0533 50.6674 26.4533 50.2141 26.96C49.7874 27.44 49.4541 28.0133 49.2141 28.68C48.9741 29.3467 48.8541 30.04 48.8541 30.76C48.8541 31.6133 49.0007 32.36 49.2941 33C49.6141 33.6133 50.0141 34.1467 50.4941 34.6C50.9741 35.0267 51.5074 35.3467 52.0941 35.56C52.6807 35.7733 53.2407 35.88 53.7741 35.88C54.2807 35.88 54.7874 35.7867 55.2941 35.6C55.8274 35.4133 56.3207 35.16 56.7741 34.84C57.2541 34.4933 57.6807 34.0933 58.0541 33.64C58.4274 33.1867 58.7341 32.6933 58.9741 32.16V29.08ZM65.8156 17H69.2156V30.2C69.2156 30.4667 69.2423 30.8933 69.2956 31.48C69.349 32.04 69.5223 32.6133 69.8156 33.2C70.1356 33.7867 70.6023 34.3067 71.2156 34.76C71.8556 35.1867 72.7356 35.4 73.8556 35.4C74.549 35.4 75.2156 35.28 75.8556 35.04C76.4956 34.8 77.0556 34.44 77.5356 33.96C78.0156 33.4533 78.4023 32.8267 78.6956 32.08C78.989 31.3333 79.1356 30.44 79.1356 29.4V17H82.5356V37H79.1356V34.48H78.9756L78.3356 35.12C77.4023 36.0533 76.469 36.68 75.5356 37C74.629 37.3467 73.789 37.5067 73.0156 37.48C71.2556 37.48 69.8823 37.1867 68.8956 36.6C67.9356 35.9867 67.229 35.28 66.7756 34.48C66.3223 33.6533 66.0423 32.8267 65.9356 32C65.8556 31.1467 65.8156 30.48 65.8156 30V17ZM104.018 9V37H100.618V33.76H100.458C99.4445 36.24 97.3645 37.48 94.2178 37.48C92.8845 37.48 91.6578 37.24 90.5378 36.76C89.4178 36.2533 88.4445 35.5467 87.6178 34.64C86.8178 33.7067 86.1911 32.6 85.7378 31.32C85.2845 30.0133 85.0578 28.56 85.0578 26.96C85.0578 25.3867 85.2845 23.96 85.7378 22.68C86.1911 21.4 86.8178 20.3067 87.6178 19.4C88.4445 18.4933 89.4178 17.8 90.5378 17.32C91.6578 16.8133 92.8845 16.56 94.2178 16.56C94.8578 16.56 95.4845 16.6267 96.0978 16.76C96.7378 16.8933 97.3378 17.1067 97.8978 17.4C98.4578 17.6933 98.9511 18.08 99.3778 18.56C99.8311 19.0133 100.191 19.5867 100.458 20.28H100.618V9H104.018ZM100.618 29V25.52C100.618 24.4267 100.458 23.4533 100.138 22.6C99.8445 21.7467 99.4445 21.0267 98.9378 20.44C98.4311 19.8267 97.8445 19.3733 97.1778 19.08C96.5111 18.76 95.8045 18.6 95.0578 18.6C94.2311 18.6 93.4445 18.76 92.6978 19.08C91.9511 19.3733 91.2845 19.8667 90.6978 20.56C90.1378 21.2267 89.6845 22.0933 89.3378 23.16C89.0178 24.2267 88.8578 25.52 88.8578 27.04C88.8578 28.5333 89.0178 29.8133 89.3378 30.88C89.6845 31.9467 90.1378 32.8133 90.6978 33.48C91.2578 34.1467 91.9111 34.64 92.6578 34.96C93.4045 35.2533 94.2045 35.4 95.0578 35.4C95.8311 35.4 96.5511 35.24 97.2178 34.92C97.9111 34.5733 98.4978 34.12 98.9778 33.56C99.4845 32.9733 99.8845 32.2933 100.178 31.52C100.471 30.72 100.618 29.88 100.618 29ZM115.358 32.32H115.518L121.798 17H123.758L114.078 40.8C113.785 41.52 113.478 42.24 113.158 42.96C112.838 43.7067 112.465 44.3733 112.038 44.96C111.612 45.5733 111.118 46.0667 110.558 46.44C109.998 46.8133 109.345 47 108.598 47C108.065 47 107.492 46.8933 106.878 46.68C106.265 46.4667 105.705 46.1333 105.198 45.68L106.958 42.36C107.198 42.8933 107.532 43.2933 107.958 43.56C108.412 43.8533 108.878 44 109.358 44C109.865 44 110.305 43.8133 110.678 43.44C111.078 43.0667 111.398 42.5733 111.638 41.96L113.758 36.76L104.798 17H108.438L115.358 32.32Z" fill="black"/>
</g>
<defs>
<filter id="filter0_i_185_52" x="4.79999" y="9" width="118.958" height="42" filterUnits="userSpaceOnUse" color-interpolation-filters="sRGB">
<feFlood flood-opacity="0" result="BackgroundImageFix"/>
<feBlend mode="normal" in="SourceGraphic" in2="BackgroundImageFix" result="shape"/>
<feColorMatrix in="SourceAlpha" type="matrix" values="0 0 0 0 0 0 0 0 0 0 0 0 0 0 0 0 0 0 127 0" result="hardAlpha"/>
<feOffset dy="4"/>
<feGaussianBlur stdDeviation="2"/>
<feComposite in2="hardAlpha" operator="arithmetic" k2="-1" k3="1"/>
<feColorMatrix type="matrix" values="0 0 0 0 0 0 0 0 0 0 0 0 0 0 0 0 0 0 0.25 0"/>
<feBlend mode="normal" in2="shape" result="effect1_innerShadow_185_52"/>
</filter>
</defs>
</svg>
