<svg width="126" height="46" viewBox="0 0 126 46" fill="none" xmlns="http://www.w3.org/2000/svg">
<path d="M32 40L105 40" stroke="black" stroke-width="2"/>
<g filter="url(#filter0_i_185_52)">
<path d="M24.8438 25.8906C24.8438 30.8125 21.4062 33.625 15.3906 33.625H3.51562V5.10938H14.9219C20.7812 5.10938 24.1406 7.84375 24.1406 12.6094C24.1406 15.6562 22.5 17.9219 19.6875 19.0156C22.8906 19.875 24.8438 22.375 24.8438 25.8906ZM14.4531 7.84375H6.79688V17.7656H14.4531C18.75 17.7656 20.9375 16.0469 20.9375 12.7656C20.9375 9.48438 18.75 7.84375 14.4531 7.84375ZM21.5625 25.8125C21.5625 22.2969 19.4531 20.5781 15.0781 20.5781H6.79688V30.8906H15.0781C19.5312 30.8906 21.5625 29.25 21.5625 25.8125ZM45.4813 22.8438V23.4688H30.7938C30.7938 28.5469 33.1375 31.2031 37.5906 31.2031C39.9344 31.2031 42.1219 30.4219 44.075 28.8594L45.1688 31.2031C43.3719 32.8438 40.4031 33.9375 37.5906 33.9375C31.2625 33.9375 27.5125 29.9531 27.5125 23.4688C27.5125 17.2969 31.4188 13 36.9656 13C42.2781 13 45.4813 16.75 45.4813 22.8438ZM30.8719 21.3594H42.5906C42.2781 17.5312 40.325 15.5781 36.9656 15.5781C33.6063 15.5781 31.4969 17.6875 30.8719 21.3594ZM62.2906 16.9844V13.4688H65.4938V33.625H62.2906V29.9531C61.1188 32.5312 58.6188 33.9375 55.4938 33.9375C50.1031 33.9375 46.5875 29.7969 46.5875 23.5469C46.5875 17.2969 50.1813 13 55.4938 13C58.6188 13 61.0406 14.4844 62.2906 16.9844ZM62.2906 23.4688C62.2906 18.4688 60.1031 15.7344 56.1188 15.7344C52.1344 15.7344 49.8688 18.625 49.8688 23.5469C49.8688 28.4688 52.1344 31.2031 56.1188 31.2031C60.1031 31.2031 62.2906 28.3906 62.2906 23.4688ZM81.3656 24.875V13.4688H84.5687V33.625H81.4437V30.1094C80.1937 32.6094 77.7719 33.9375 74.8812 33.9375C70.1156 33.9375 67.6156 31.2031 67.6156 25.9688V13.4688H70.8969V25.8906C70.8969 29.5625 72.3812 31.2031 75.4281 31.2031C78.9437 31.2031 81.3656 28.7031 81.3656 24.875ZM102.316 16.9062V4.17188H105.597V33.625H102.394V29.9531C101.222 32.5312 98.7219 33.9375 95.5969 33.9375C90.2844 33.9375 86.6906 29.6406 86.6906 23.3906C86.6906 17.1406 90.2063 13 95.5969 13C98.7219 13 101.144 14.4844 102.316 16.9062ZM102.394 23.4688C102.394 18.5469 100.206 15.7344 96.2219 15.7344C92.2375 15.7344 89.9719 18.5469 89.9719 23.3906C89.9719 28.3125 92.2375 31.2031 96.2219 31.2031C100.206 31.2031 102.394 28.3906 102.394 23.4688ZM115.453 30.1094L122.328 13.4688H125.531L116.156 35.5C114.203 40.0312 111.234 41.9062 106.938 42.6875L106.234 40.1875C108.109 39.7188 109.516 39.1719 110.531 38.4688C111.469 37.7656 112.328 36.6719 112.953 35.1875L113.734 33.3906L105.219 13.4688H108.656L115.453 30.1094Z" fill="black"/>
</g>
<defs>
<filter id="filter0_i_185_52" x="3.51562" y="4.17188" width="122.016" height="42.5156" filterUnits="userSpaceOnUse" color-interpolation-filters="sRGB">
<feFlood flood-opacity="0" result="BackgroundImageFix"/>
<feBlend mode="normal" in="SourceGraphic" in2="BackgroundImageFix" result="shape"/>
<feColorMatrix in="SourceAlpha" type="matrix" values="0 0 0 0 0 0 0 0 0 0 0 0 0 0 0 0 0 0 127 0" result="hardAlpha"/>
<feOffset dy="4"/>
<feGaussianBlur stdDeviation="2"/>
<feComposite in2="hardAlpha" operator="arithmetic" k2="-1" k3="1"/>
<feColorMatrix type="matrix" values="0 0 0 0 0 0 0 0 0 0 0 0 0 0 0 0 0 0 0.25 0"/>
<feBlend mode="normal" in2="shape" result="effect1_innerShadow_185_52"/>
</filter>
</defs>
</svg>
