<svg width="19" height="19" viewBox="0 0 19 19" fill="none" xmlns="http://www.w3.org/2000/svg">
<path d="M9.02836 1.81507L8.6748 1.46152L8.32125 1.81507L6.94417 3.19215L6.73992 3.39641L6.81483 3.67538C6.93155 4.11 6.93173 4.56769 6.81538 5.0024C6.69903 5.43712 6.47024 5.83352 6.15203 6.15173C5.83382 6.46994 5.43741 6.69873 5.0027 6.81509C4.56798 6.93144 4.11029 6.93125 3.67567 6.81454L3.3967 6.73963L3.19245 6.94388L1.81537 8.32096L1.46181 8.67451L1.81537 9.02807L10.4899 17.7026L10.8434 18.0561L11.197 17.7026L12.5741 16.3255L12.7783 16.1212L12.7034 15.8423C12.5867 15.4077 12.5865 14.95 12.7029 14.5152C12.8192 14.0805 13.048 13.6841 13.3662 13.3659C13.6844 13.0477 14.0808 12.8189 14.5155 12.7026C14.9503 12.5862 15.4079 12.5864 15.8426 12.7031L16.1215 12.778L16.3258 12.5738L17.7029 11.1967L18.0564 10.8431L17.7029 10.4896L9.02836 1.81507ZM6.57245 9.60824H12.9458V9.90941L6.57245 9.90941L6.57245 9.60824ZM6.371 4.33726L5.871 4.33726L6.371 4.33726C6.371 3.968 6.27057 3.6091 6.08483 3.29708L7.94404 1.43787C8.13785 1.24406 8.40072 1.13518 8.6748 1.13518C8.94889 1.13518 9.21176 1.24406 9.40557 1.43787L18.0801 10.1124C18.4866 10.5189 18.4866 11.1674 18.0801 11.5739L16.2209 13.4331C15.9088 13.2474 15.5499 13.1469 15.1807 13.1469C14.6414 13.1469 14.1242 13.3612 13.7428 13.7425C13.3615 14.1239 13.1472 14.6411 13.1472 15.1804C13.1472 15.5496 13.2477 15.9085 13.4334 16.2206L11.5742 18.0798C11.1677 18.4863 10.5192 18.4863 10.1127 18.0798L1.43816 9.40527C1.24435 9.21146 1.13547 8.9486 1.13547 8.67451C1.13547 8.40042 1.24435 8.13756 1.43816 7.94375L3.29661 6.08531C4.07802 6.55348 5.10046 6.45008 5.77542 5.77512C6.15676 5.39378 6.371 4.87656 6.371 4.33726ZM10.2188 6.58836C10.4735 6.84309 10.4735 7.25299 10.2188 7.50772C9.96407 7.76245 9.55416 7.76245 9.29944 7.50772C9.04471 7.253 9.04471 6.84309 9.29944 6.58836C9.55416 6.33363 9.96407 6.33363 10.2188 6.58836ZM10.2188 12.0099C10.4735 12.2647 10.4735 12.6746 10.2188 12.9293C9.96407 13.184 9.55416 13.184 9.29944 12.9293C9.04471 12.6746 9.04471 12.2647 9.29944 12.0099C9.55416 11.7552 9.96407 11.7552 10.2188 12.0099Z" fill="#8769B6" stroke="#8769B6"/>
</svg>
