<svg width="62" height="62" viewBox="0 0 62 62" fill="none" xmlns="http://www.w3.org/2000/svg">
<path d="M22.75 9L29.625 24.125L44.75 31L29.625 37.875L22.75 53L15.875 37.875L0.75 31L15.875 24.125L22.75 9ZM22.75 22.2825L20 28.25L14.0325 31L20 33.75L22.75 39.7175L25.5 33.75L31.4675 31L25.5 28.25L22.75 22.2825ZM50.25 22.75L46.785 15.215L39.25 11.75L46.785 8.3125L50.25 0.75L53.6875 8.3125L61.25 11.75L53.6875 15.215L50.25 22.75ZM50.25 61.25L46.785 53.715L39.25 50.25L46.785 46.8125L50.25 39.25L53.6875 46.8125L61.25 50.25L53.6875 53.715L50.25 61.25Z" fill="white"/>
</svg>
