<svg width="29" height="22" viewBox="0 0 29 22" fill="none" xmlns="http://www.w3.org/2000/svg">
<path d="M21.875 0.5C23.482 0.499779 25.0247 1.13114 26.1705 2.25794C27.3163 3.38474 27.9734 4.9167 28 6.5235C28.1575 8.03725 28.1347 10.2702 27.111 12.848C26.0645 15.4835 24.024 18.357 20.3 21.15C20.1161 21.2879 19.9069 21.3882 19.6843 21.4452C19.4617 21.5023 19.23 21.5149 19.0025 21.4824C18.543 21.4168 18.1285 21.1713 17.85 20.8C17.5715 20.4287 17.4519 19.962 17.5176 19.5025C17.5832 19.043 17.8287 18.6285 18.2 18.35C20.937 16.2973 22.505 14.3023 23.4027 12.5575C22.5611 12.7736 21.683 12.8082 20.8269 12.6589C19.9709 12.5096 19.1564 12.1799 18.4375 11.6916C17.7187 11.2033 17.112 10.5676 16.6577 9.82681C16.2035 9.086 15.9121 8.25702 15.8028 7.39491C15.6936 6.53281 15.7691 5.65734 16.0242 4.82664C16.2793 3.99595 16.7083 3.22906 17.2827 2.57691C17.857 1.92476 18.5635 1.40229 19.3553 1.0442C20.1471 0.686111 21.006 0.500603 21.875 0.5ZM6.12499 0.5C7.73201 0.499779 9.27474 1.13114 10.4205 2.25794C11.5663 3.38474 12.2234 4.9167 12.25 6.5235C12.4075 8.03725 12.3847 10.2702 11.361 12.848C10.3162 15.4835 8.27399 18.357 4.54999 21.15C4.36614 21.2879 4.15693 21.3882 3.93431 21.4452C3.71169 21.5023 3.48001 21.5149 3.2525 21.4824C2.79304 21.4168 2.37847 21.1713 2.09999 20.8C1.82151 20.4287 1.70194 19.962 1.76758 19.5025C1.83322 19.043 2.07869 18.6285 2.44999 18.35C5.18699 16.2973 6.75499 14.3023 7.65274 12.5575C6.81106 12.7736 5.93302 12.8082 5.07694 12.6589C4.22087 12.5096 3.40637 12.1799 2.68754 11.6916C1.96871 11.2033 1.36201 10.5676 0.907746 9.82681C0.453484 9.086 0.162057 8.25702 0.0528245 7.39491C-0.0564083 6.53281 0.0190535 5.65734 0.274198 4.82664C0.529343 3.99595 0.958329 3.22906 1.53266 2.57691C2.10699 1.92476 2.81351 1.40229 3.6053 1.0442C4.39708 0.686111 5.256 0.500603 6.12499 0.5Z" fill="black"/>
</svg>
