<svg width="55" height="50" viewBox="0 0 55 50" fill="none" xmlns="http://www.w3.org/2000/svg">
<path fill-rule="evenodd" clip-rule="evenodd" d="M13.3488 37.9828C12.4564 38.4909 11.7859 39.276 11.4558 40.1991C11.1257 41.1223 11.1573 42.1242 11.5449 43.0279C11.9324 43.9316 12.6511 44.6788 13.574 45.1376C14.4968 45.5965 15.5644 45.7373 16.5881 45.5353C17.6119 45.3334 18.5259 44.8015 19.1687 44.0338C19.8114 43.2661 20.1417 42.3119 20.101 41.3398C20.0603 40.3677 19.6513 39.4402 18.9462 38.7213C18.2412 38.0023 17.2855 37.5382 16.248 37.4108C16.1925 37.2263 16.1418 37.0406 16.0956 36.8539C15.8934 36.0044 15.7354 35.1463 15.6223 34.2826C15.5001 33.4097 15.431 32.531 15.4152 31.6509C15.4121 31.4092 15.4195 31.1674 15.4374 30.9262C16.0054 30.775 16.5764 30.6375 17.1458 30.5179C17.7981 30.3804 18.1857 31.0954 18.4978 31.6756L18.625 31.908H36.0037C36.3425 31.3113 37.1101 30.3598 37.8542 30.5179C38.647 30.6856 39.4443 30.885 40.2341 31.1132L40.2297 31.1146C40.2267 31.1119 40.2267 31.1119 40.2297 31.1174C40.2356 31.1366 40.2682 31.2274 40.3007 31.4199C40.3377 31.6426 40.3628 31.9314 40.3747 32.2793C40.3954 32.9723 40.3525 33.8151 40.2652 34.6649C40.1765 35.5132 40.0448 36.3341 39.8969 36.9818C39.8644 37.1261 39.8318 37.2567 39.7993 37.375H37.8542C37.5795 37.3751 37.3104 37.4463 37.0768 37.5806C36.8433 37.7149 36.6545 37.907 36.5318 38.1354L35.0526 40.8854C34.9497 41.0761 34.896 41.2866 34.8958 41.5V44.25C34.8958 44.6147 35.0517 44.9644 35.3291 45.2223C35.6065 45.4801 35.9827 45.625 36.375 45.625H39.3333V42.875H37.8542V41.8245L38.7683 40.125H42.8567L43.7708 41.8245V42.875H42.2917V45.625H45.25C45.6423 45.625 46.0185 45.4801 46.2959 45.2223C46.5733 44.9644 46.7292 44.6147 46.7292 44.25V41.5C46.729 41.2866 46.6753 41.0761 46.5724 40.8854L45.0932 38.1354C44.9705 37.907 44.7817 37.7149 44.5482 37.5806C44.3146 37.4463 44.0455 37.3751 43.7708 37.375H42.8301C42.9884 36.6421 43.12 35.7869 43.2087 34.9289C43.3064 34.0021 43.3567 33.041 43.3315 32.2023L43.33 32.1637C49.229 34.4806 54.125 38.2907 54.125 42.2837V49.75H0.875V42.2837C0.875 38.1147 6.21479 34.1437 12.4584 31.8654C12.4746 32.7206 12.5619 33.6873 12.6876 34.6236C12.8237 35.6343 13.0086 36.6394 13.2127 37.4671C13.2571 37.6445 13.3015 37.8164 13.3488 37.9828ZM15.6667 42.8956C16.4625 42.8956 17.1458 42.2906 17.1458 41.5C17.1458 40.7107 16.4625 40.1044 15.6667 40.1044C14.8709 40.1044 14.1875 40.7094 14.1875 41.5C14.1875 42.2893 14.8709 42.8956 15.6667 42.8956ZM27.5 25C30.6384 25 33.6482 23.8411 35.8674 21.7782C38.0866 19.7153 39.3333 16.9174 39.3333 14C39.3333 11.0826 38.0866 8.28472 35.8674 6.22182C33.6482 4.15892 30.6384 3 27.5 3C24.3616 3 21.3517 4.15892 19.1326 6.22182C16.9134 8.28472 15.6667 11.0826 15.6667 14C15.6667 16.9174 16.9134 19.7153 19.1326 21.7782C21.3517 23.8411 24.3616 25 27.5 25ZM27.5 27.75C35.6694 27.75 42.2917 21.5941 42.2917 14C42.2917 6.40588 35.6694 0.25 27.5 0.25C19.3306 0.25 12.7083 6.40588 12.7083 14C12.7083 21.5941 19.3306 27.75 27.5 27.75Z" fill="white"/>
</svg>
