<svg width="57" height="57" viewBox="0 0 57 57" fill="none" xmlns="http://www.w3.org/2000/svg">
<path d="M53.0795 0.382812L40.8676 3.93439L45.8119 0.587734C42.6904 1.29305 38.7469 2.6727 33.7906 4.89943L25.701 13.3334L28.5723 7.44189C25.7963 8.98596 22.8535 11.0102 20.018 13.3811L18.1356 21.0418L17.7305 15.3707C14.9307 17.9441 12.2977 20.8035 10.1174 23.8178C7.82632 26.975 6.03564 30.3109 5.13851 33.635L1.78827 31.3951C2.08851 34.2188 3.01661 36.673 4.53923 38.9248L0.533722 37.6977C1.44396 40.4975 2.93202 42.3084 5.44827 43.7738C4.03884 47.7412 3.37761 51.8873 2.66753 56.0215L4.85972 56.3908C7.40218 31.0496 25.3436 14.8941 41.5586 7.73617L42.3807 9.80684C27.8813 16.3 16.6106 27.2609 10.7131 43.059C12.8695 43.0709 14.9783 42.8088 16.9322 42.3084L17.516 35.0527L19.0768 41.665C20.3754 41.1885 21.5668 40.6166 22.6272 39.9494L20.1609 34.7668L24.0688 38.9129C25.0219 38.1504 25.8082 37.2926 26.4039 36.3514C30.0258 30.6922 33.8145 25.0688 41.2727 20.3627L35.8279 18.4326L44.1797 18.6828C45.5379 17.9918 46.9676 17.1459 48.0518 16.3477L42.1305 15.8711L51.0303 13.7742C51.7213 13.0832 52.3647 12.3564 52.9484 11.6297C55.0096 9.01574 56.4035 6.29457 56.0699 3.82002C55.915 2.58215 55.1764 1.41814 53.9731 0.766445C53.6752 0.611562 53.3535 0.474551 53.0795 0.382812Z" fill="white"/>
</svg>
