<svg width="12" height="11" viewBox="0 0 12 11" fill="none" xmlns="http://www.w3.org/2000/svg">
<path d="M10.0663 4.00655H7.09259L7.68765 2.19881C7.79469 1.87238 7.74064 1.51051 7.54193 1.23132C7.34322 0.952132 7.02105 0.785156 6.68139 0.785156H5.82722C5.66984 0.785156 5.52094 0.856027 5.41973 0.97844L2.92927 4.00655H1.58812C1.00366 4.00655 0.528351 4.48815 0.528351 5.08035V9.91244C0.528351 10.5046 1.00366 10.9862 1.58812 10.9862H8.63932C8.85493 10.9855 9.06524 10.9185 9.24245 10.7941C9.41966 10.6696 9.55543 10.4936 9.6318 10.2893L11.0927 6.3426C11.1149 6.28231 11.1262 6.21848 11.1261 6.15414V5.08035C11.1261 4.48815 10.6508 4.00655 10.0663 4.00655ZM1.58812 5.08035H2.6479V9.91244H1.58812V5.08035ZM10.0663 6.05697L8.63932 9.91244H3.70767V4.73781L6.0752 1.85895H6.68245L5.85477 4.37325C5.8279 4.45395 5.82041 4.53999 5.83291 4.62421C5.84541 4.70844 5.87755 4.78843 5.92666 4.85756C5.97577 4.92668 6.04043 4.98295 6.11529 5.0217C6.19015 5.06044 6.27304 5.08055 6.3571 5.08035H10.0663V6.05697Z" fill="#6E6D7A"/>
</svg>
